<?xml version="1.0" standalone="no"?><!DOCTYPE svg PUBLIC "-//W3C//DTD SVG 1.1//EN" "http://www.w3.org/Graphics/SVG/1.1/DTD/svg11.dtd"><svg t="1544669004582" class="icon" style="" viewBox="0 0 1024 1024" version="1.1" xmlns="http://www.w3.org/2000/svg" p-id="2289" xmlns:xlink="http://www.w3.org/1999/xlink" width="32" height="32"><defs><style type="text/css"></style></defs><path d="M660.762483 641.853793c11.917241 0 23.799172 1.05931 35.628138 3.10731a35.310345 35.310345 0 0 0 12.146758-69.561379 277.362759 277.362759 0 0 0-47.774896-4.166621H363.290483a35.310345 35.310345 0 1 0 0 70.62069h297.489655z m212.303448 120.937931c5.420138 7.097379 10.646069 14.406621 15.624828 21.892414 36.140138 54.289655 59.250759 116.824276 64.900413 175.774896l35.151449-38.682482H720.595862a35.310345 35.310345 0 1 0 0 70.620689H988.742621a35.310345 35.310345 0 0 0 35.133793-38.682482c-6.779586-70.850207-33.986207-144.41931-76.393931-208.154483a478.331586 478.331586 0 0 0-38.682483-50.458483 35.310345 35.310345 0 1 0-52.965517 46.715586c5.932138 6.744276 11.687724 13.753379 17.231448 20.992z m-599.393103 158.984828H35.310345l35.133793 38.682482c15.677793-163.433931 151.816828-318.605241 292.82869-318.605241a35.310345 35.310345 0 1 0 0-70.62069C181.989517 571.233103 19.032276 756.983172 0.158897 953.732414A35.310345 35.310345 0 0 0 35.310345 992.397241h357.534896a35.310345 35.310345 0 1 0 0-70.620689h-119.172413z m230.576551-398.053518c139.758345 0 253.033931-113.293241 253.033931-253.033931C757.28331 130.948414 644.007724 17.655172 504.249379 17.655172 364.50869 17.655172 251.233103 130.948414 251.233103 270.689103c0 139.74069 113.293241 253.033931 253.033931 253.033931z m0-435.447172c100.740414 0 182.413241 81.672828 182.413242 182.413241s-81.672828 182.413241-182.413242 182.413242S321.853793 371.429517 321.853793 270.689103 403.508966 88.275862 504.249379 88.275862z m35.416276 813.497379l26.482759 23.375449-17.655173-30.578759a17.672828 17.672828 0 0 1 24.081656 6.461793 35.310345 35.310345 0 0 0-5.190621-6.885517l-91.595035-94.667035a35.310345 35.310345 0 1 0-50.740965 49.099035l91.577379 94.667034 25.370483-24.558344-30.578759 17.655172a52.947862 52.947862 0 0 0 72.386207 19.385379 35.310345 35.310345 0 0 0 8.809931-7.20331l259.707586-294.099862a35.310345 35.310345 0 1 0-52.930206-46.750897l-259.707587 294.099862z" p-id="2290"></path></svg>